<svg viewBox="0 0 20 20" fill="none" xmlns="http://www.w3.org/2000/svg">
<path d="M7.5 4H6C4.89543 4 4 4.89543 4 6V7.5C4 8.60457 4.89543 9.5 6 9.5H7.5C8.60457 9.5 9.5 8.60457 9.5 7.5V6C9.5 4.89543 8.60457 4 7.5 4Z" fill="currentColor"/>
<path d="M14 4H12.5C11.3954 4 10.5 4.89543 10.5 6V7.5C10.5 8.60458 11.3954 9.5 12.5 9.5H14C15.1046 9.5 16 8.60458 16 7.5V6C16 4.89543 15.1046 4 14 4Z" fill="currentColor"/>
<path d="M7.5 10.5H6C4.89543 10.5 4 11.3954 4 12.5V14C4 15.1046 4.89543 16 6 16H7.5C8.60457 16 9.5 15.1046 9.5 14V12.5C9.5 11.3954 8.60457 10.5 7.5 10.5Z" fill="currentColor"/>
<path d="M14 10.5H12.5C11.3954 10.5 10.5 11.3954 10.5 12.5V14C10.5 15.1046 11.3954 16 12.5 16H14C15.1046 16 16 15.1046 16 14V12.5C16 11.3954 15.1046 10.5 14 10.5Z" fill="currentColor"/>
</svg>
