<svg viewBox="0 0 20 20" fill="none" xmlns="http://www.w3.org/2000/svg">
<path d="M4.67299 14.0812L5.78941 13.7646C6.79692 13.4788 7.50033 12.4857 7.50033 11.3489C7.50033 11.3489 7.50033 9.97008 10.0003 9.97008C12.5002 9.97008 12.5003 11.3489 12.5003 11.3489C12.5003 12.4857 13.2037 13.4788 14.2112 13.7646L15.3277 14.0812C16.849 14.5127 18.3337 13.2587 18.3337 11.5422C18.3337 10.5107 18.1032 9.47766 17.4312 8.75283C16.3002 7.53257 14.006 5.8335 10.0003 5.8335C5.99468 5.8335 3.70052 7.53256 2.5694 8.75283C1.89748 9.47766 1.66699 10.5107 1.66699 11.5422C1.66699 13.2587 3.15164 14.5127 4.67299 14.0812Z" fill="currentColor"/>
</svg>
