<svg viewBox="0 0 20 20" fill="none" xmlns="http://www.w3.org/2000/svg">
<path d="M4.85714 4C4.38304 4 4 4.38304 4 4.85714V7.42857C4 7.90268 4.38304 8.28571 4.85714 8.28571C5.33125 8.28571 5.71429 7.90268 5.71429 7.42857V5.71429H7.42857C7.90268 5.71429 8.28571 5.33125 8.28571 4.85714C8.28571 4.38304 7.90268 4 7.42857 4H4.85714ZM5.71429 12.5714C5.71429 12.0973 5.33125 11.7143 4.85714 11.7143C4.38304 11.7143 4 12.0973 4 12.5714V15.1429C4 15.617 4.38304 16 4.85714 16H7.42857C7.90268 16 8.28571 15.617 8.28571 15.1429C8.28571 14.6687 7.90268 14.2857 7.42857 14.2857H5.71429V12.5714ZM12.5714 4C12.0973 4 11.7143 4.38304 11.7143 4.85714C11.7143 5.33125 12.0973 5.71429 12.5714 5.71429H14.2857V7.42857C14.2857 7.90268 14.6687 8.28571 15.1429 8.28571C15.617 8.28571 16 7.90268 16 7.42857V4.85714C16 4.38304 15.617 4 15.1429 4H12.5714ZM16 12.5714C16 12.0973 15.617 11.7143 15.1429 11.7143C14.6687 11.7143 14.2857 12.0973 14.2857 12.5714V14.2857H12.5714C12.0973 14.2857 11.7143 14.6687 11.7143 15.1429C11.7143 15.617 12.0973 16 12.5714 16H15.1429C15.617 16 16 15.617 16 15.1429V12.5714Z" fill="currentColor"/>
</svg>
