<svg viewBox="0 0 20 20" fill="none" xmlns="http://www.w3.org/2000/svg">
<path d="M10 4C6.7 4 4 6.68657 4 9.97018V12.1791V12.8955V13.6119C4 14.9254 5.02 15.9403 6.34 15.9403C7.66 15.9403 8.68 14.9254 8.68 13.6119V12.1194C8.68 10.8657 7.66 9.79102 6.34 9.79102C5.92 9.85078 5.56 9.97018 5.2 10.1493V9.97018C5.2 7.34329 7.36 5.19403 10 5.19403C12.64 5.19403 14.8 7.34329 14.8 9.97018V10.1493C14.44 9.97018 14.08 9.85078 13.66 9.85078C12.4 9.85078 11.32 10.8657 11.32 12.1791V13.6716C11.32 14.9254 12.34 16 13.66 16C14.92 16 16 14.9851 16 13.6716V12.9552V12.2388V9.97018C16 6.68657 13.3 4 10 4Z" fill="currentColor"/>
</svg>
