<svg viewBox="0 0 20 20" fill="none" xmlns="http://www.w3.org/2000/svg">
<path d="M15.3362 15.0646C15.2381 15.1384 15.1085 15.1769 14.976 15.1717C14.8435 15.1665 14.7189 15.1179 14.6297 15.0367L12.6965 13.2777C12.0352 13.6304 11.2814 13.847 10.4982 13.9093V15.5861C10.4982 15.6959 10.4455 15.8012 10.3517 15.8788C10.2579 15.9564 10.1307 16 9.99801 16C9.86535 16 9.73813 15.9564 9.64432 15.8788C9.55052 15.8012 9.49782 15.6959 9.49782 15.5861V13.9099C8.26464 13.806 7.12179 13.3275 6.29029 12.5668C5.45878 11.8062 4.99768 10.8174 4.99615 9.79168C4.99615 9.68191 5.04885 9.57664 5.14265 9.49902C5.23646 9.4214 5.36368 9.37779 5.49634 9.37779C5.629 9.37779 5.75622 9.4214 5.85002 9.49902C5.94383 9.57664 5.99652 9.68191 5.99652 9.79168C5.99768 10.6695 6.41964 11.5112 7.16981 12.1319C7.91998 12.7527 8.9371 13.1018 9.99801 13.1028C10.7057 13.1045 11.4011 12.9495 12.0119 12.6537L11.3179 12.0225C10.8603 12.208 10.3532 12.2939 9.84432 12.2723C9.33548 12.2507 8.84165 12.1223 8.40938 11.8991C7.9771 11.676 7.62061 11.3654 7.3735 10.9967C7.12638 10.628 6.99678 10.2133 6.9969 9.79168V8.08905L4.62602 5.93114C4.53867 5.84967 4.49365 5.74299 4.50072 5.63424C4.50779 5.52549 4.56638 5.42342 4.66379 5.35017C4.76119 5.27693 4.88956 5.2384 5.02107 5.24295C5.15257 5.24749 5.27661 5.29474 5.36629 5.37446L15.37 14.48C15.4592 14.5612 15.5058 14.6685 15.4994 14.7781C15.4931 14.8877 15.4344 14.9908 15.3362 15.0646ZM13.8238 11.7985C13.892 11.8265 13.9671 11.841 14.0433 11.8409C14.137 11.841 14.2288 11.8192 14.3083 11.7781C14.3877 11.737 14.4517 11.6783 14.4928 11.6086C14.8284 11.0433 15.0019 10.4215 14.9999 9.79168C14.9999 9.68191 14.9472 9.57664 14.8534 9.49902C14.7596 9.4214 14.6323 9.37779 14.4997 9.37779C14.367 9.37779 14.2398 9.4214 14.146 9.49902C14.0522 9.57664 13.9995 9.68191 13.9995 9.79168C14.0013 10.2954 13.8626 10.7927 13.5943 11.2449C13.5361 11.3435 13.5275 11.4572 13.5706 11.561C13.6136 11.6649 13.7047 11.7503 13.8238 11.7985ZM12.115 10.2868C12.18 10.346 12.2644 10.3883 12.3578 10.4087C12.4513 10.4291 12.5499 10.4266 12.6417 10.4016C12.7335 10.3766 12.8146 10.3301 12.8751 10.2678C12.9357 10.2054 12.9731 10.1299 12.9829 10.0504C12.9936 9.96442 12.999 9.87808 12.9991 9.79168V6.48058C12.9984 5.91021 12.7603 5.35745 12.3251 4.91519C11.8898 4.47293 11.2838 4.16812 10.609 4.05201C9.93412 3.93589 9.23153 4.01554 8.61929 4.27757C8.00704 4.5396 7.52246 4.96803 7.24699 5.49087C7.20853 5.56395 7.19638 5.64466 7.21202 5.72332C7.22766 5.80197 7.27042 5.87521 7.33515 5.93424L12.115 10.2868Z" fill="currentColor"/>
</svg>
