<svg viewBox="0 0 20 20" fill="none" xmlns="http://www.w3.org/2000/svg">
<path d="M14.51 6.32303L11.1 4.28866C10.44 3.90378 9.615 3.90378 8.955 4.28866L5.49 6.32303C4.885 6.7079 4.5 7.42268 4.5 8.13746V11.8213C4.5 12.5361 4.885 13.2509 5.49 13.6357L8.9 15.7251C9.23 15.945 9.615 16 10 16C10.385 16 10.77 15.89 11.1 15.7251L14.51 13.6907C15.115 13.3058 15.5 12.6461 15.5 11.8763V8.13746C15.5 7.42268 15.115 6.7079 14.51 6.32303ZM10 12.0413C8.9 12.0413 7.965 11.1065 7.965 10.0069C7.965 8.90721 8.845 7.97251 10 7.97251C11.155 7.97251 12.035 8.85223 12.035 10.0069C12.035 11.1065 11.1 12.0413 10 12.0413Z" fill="currentColor"/>
</svg>
