<svg viewBox="0 0 20 20" fill="none" xmlns="http://www.w3.org/2000/svg">
<path d="M9.10322 4H2.94771C1.30046 4 0 5.32353 0 7V13C0 14.6765 1.30046 16 2.94771 16H9.10322C10.7505 16 12.0509 14.6765 12.0509 13V7C12.1376 5.32353 10.7505 4 9.10322 4Z" fill="currentColor"/>
<path d="M18.2064 5.23527C17.5996 4.88233 16.8193 4.88233 16.2124 5.23527L16.1257 5.3235L13.8716 6.91174C13.6115 7.08821 13.5248 7.35292 13.5248 7.61762V12.5588C13.5248 12.8235 13.6982 13.0882 13.8716 13.2647L16.039 14.8529L16.1257 14.9412C16.3858 15.1176 16.7326 15.2059 17.0794 15.2059C17.4262 15.2059 17.8597 15.1176 18.1197 14.9412C18.6399 14.5882 18.9867 13.9706 18.9867 13.3529V6.8235C19.0734 6.20586 18.7266 5.58821 18.2064 5.23527Z" fill="currentColor"/>
</svg>
